<svg xmlns="http://www.w3.org/2000/svg" width="256" height="256" viewBox="0 0 100 100"><rect width="100" height="100" rx="20" fill="#5ab6b8"></rect><path fill="#f8e71c" d="M18.66 37.58L25.27 53.89L26.18 57.70L26.25 57.70L27.20 53.81L33.50 37.58L37.00 37.58L26.85 62.43L25.10 62.43L14.81 37.58L18.66 37.58ZM60.66 62.08L60.66 46.29L61.04 42.37L60.90 42.37L59.40 45.77L52.57 56.62L51.52 56.62L44.35 45.73L42.91 42.41L42.74 42.41L43.30 46.26L43.30 62.08L40.01 62.08L40.01 37.58L42.63 37.58L50.93 50.07L52.22 52.73L52.29 52.73L53.52 50L61.39 37.58L64.16 37.58L64.16 62.08L60.66 62.08ZM70.39 62.08L70.39 37.58L85.19 37.58L85.19 40.59L73.89 40.59L73.89 48.39L84.39 48.39L84.39 51.40L73.89 51.40L73.89 62.08L70.39 62.08Z"></path></svg>